<svg width="1000" height="1000" viewBox="0 0 1000 1000" fill="none" xmlns="http://www.w3.org/2000/svg">
  <circle cx="500" cy="500" r="500" fill="black"/>
  <path d="M813.5 460.808L764.472 411.78L677.724 498.528L590.977 411.78L541.948 460.808L628.696 547.556L541.948 634.303L590.977 683.331L677.724 596.584L764.472 683.331L813.5 634.303L726.752 547.556L813.5 460.808Z" fill="#FE6E99"/>
  <path
    d="M798.351 297.538H704.794V297.727C686.894 298.514 669.743 305.133 655.955 316.574L589.681 366.969C589.327 367.205 588.95 367.346 588.621 367.605L407.351 505.619V429.026C407.351 424.558 405.576 420.273 402.417 417.114C399.258 413.955 394.973 412.18 390.505 412.18H203.345C198.878 412.18 194.593 413.955 191.434 417.114C188.275 420.273 186.5 424.558 186.5 429.026V580.304V582.519C186.5 584.238 186.5 586.877 186.736 589.893C186.736 590.529 186.736 591.141 186.901 591.73C186.903 592.354 186.95 592.976 187.042 593.592C187.184 596.219 187.515 598.833 188.032 601.414C188.45 604.309 189.025 607.179 189.751 610.013C191.284 616.304 193.712 622.342 196.961 627.942C199.117 632.034 201.558 635.971 204.264 639.722C209.691 647.661 216.488 654.57 224.337 660.125C241.677 674.261 268.771 683.331 299.352 683.331C329.933 683.331 357.569 673.907 374.885 659.771C376.926 658.381 378.87 656.854 380.704 655.201C388.907 648.533 396.718 641.398 404.099 633.832C410.838 627.094 416.775 620.756 421.133 615.714L590.27 440.947C591.206 439.964 592.043 438.891 592.767 437.743L628.649 400.683L669.879 358.111L678.525 349.181C693.669 335.513 713.35 327.956 733.75 327.977H798.351C802.368 327.977 806.222 326.381 809.063 323.54C811.904 320.699 813.5 316.846 813.5 312.828C813.5 308.811 811.904 304.957 809.063 302.116C806.222 299.275 802.368 297.679 798.351 297.679V297.538Z"
    fill="#FFFFFF"/>
</svg>