<?xml version="1.0" encoding="UTF-8"?>
<svg width="566px" height="566px" viewBox="0 0 566 566" version="1.1" xmlns="http://www.w3.org/2000/svg" xmlns:xlink="http://www.w3.org/1999/xlink">
    <!-- Generator: Sketch 52.6 (67491) - http://www.bohemiancoding.com/sketch -->
    <title>Group</title>
    <desc>Created with Sketch.</desc>
    <g id="Page-1" stroke="none" stroke-width="1" fill="none" fill-rule="evenodd">
        <g id="r" transform="translate(-1615.000000, -490.000000)">
            <g id="Group" transform="translate(1615.000000, 490.000000)">
                <circle id="Oval" fill="#FFFFFF" cx="282.5" cy="282.5" r="257.5"></circle>
                <path d="M283,566 C439.296584,566 566,439.296584 566,283 C566,126.703416 439.296584,0 283,0 C126.703416,0 0,126.703416 0,283 C0,439.296584 126.703416,566 283,566 Z" id="Combined-Shape-path" fill="#000000" fill-rule="nonzero"></path>
                <path d="M282.967807,517.471513 C412.480628,517.471513 517.471513,412.480628 517.471513,282.967807 C517.471513,153.454985 412.480628,48.4640995 282.967807,48.4640995 C153.454985,48.4640995 48.4640995,153.454985 48.4640995,282.967807 C48.4640995,412.480628 153.454985,517.471513 282.967807,517.471513 Z" id="Combined-Shape-path" fill="#FFFFFF" fill-rule="nonzero"></path>
                <g id="Group-2" transform="translate(120.000000, 137.000000)" fill="#000000" fill-rule="nonzero">
                    <path d="M203.027848,143.90246 C175.83261,148.204164 155.794014,141.034658 145.774716,132.431251 C151.500029,102.319324 150.32308,82.2811116 170.107297,85.1125091 C205.890504,7.68184139 223.792679,-5.22327043 303.220828,4.81403834 C304.400431,4.96310451 306.579297,-1.25274501 307.514813,0.512335039 C309.592762,4.43289152 309.267227,21.0475555 304.652157,24.8886559 C303.433557,25.9028907 302.278306,20.8400561 300.358172,20.5869526 C245.967697,13.4174462 200.165191,36.1046826 200.165191,90.8481139 C221.635116,98.0176203 208.753161,120.96004 203.027848,143.90246 Z" id="Combined-Shape-path"></path>
                    <path d="M24.4182585,274.541922 C1.11836625,254.125204 0.0469483887,132.543773 0.0469483887,124.28462 C0.0469483887,116.025468 23.1534579,109.330102 51.6567821,109.330102 C80.1601064,109.330102 103.266616,116.025468 103.266616,124.28462 C103.266616,125.216436 103.266616,181.966333 114.735468,181.966333 C131.938746,181.966333 138.785155,148.586103 141.973991,137.814898 C153.442844,147.784577 187.846064,154.194816 202.185465,149.208817 C192.150219,226.117768 179.946297,250.358975 174.946941,261.723764 C171.380419,269.831363 163.019664,282.682913 144.841204,287.36008 C115.56483,294.892652 70.513725,291.22328 51.6567821,287.36008 C36.8459076,284.325794 32.5450875,281.663121 24.4182585,274.541922 Z" id="Combined-Shape-path"></path>
                    <path d="M51.6567821,127.845219 C73.0342757,127.845219 90.3641576,124.65695 90.3641576,120.72402 C90.3641576,116.791091 73.0342757,113.602821 51.6567821,113.602821 C30.2792893,113.602821 12.9494067,116.791091 12.9494067,120.72402 C12.9494067,124.65695 30.2792893,127.845219 51.6567821,127.845219 Z" id="Combined-Shape-path"></path>
                </g>
            </g>
        </g>
    </g>
</svg>