<?xml version="1.0" encoding="UTF-8"?>
<svg width="215px" height="205px" viewBox="0 0 215 205" version="1.1" xmlns="http://www.w3.org/2000/svg" xmlns:xlink="http://www.w3.org/1999/xlink">
    <!-- Generator: Sketch 52.6 (67491) - http://www.bohemiancoding.com/sketch -->
    <title>Group 7</title>
    <desc>Created with Sketch.</desc>
    <g id="Page-1" stroke="none" stroke-width="1" fill="none" fill-rule="evenodd">
        <g id="r" transform="translate(-1194.000000, -54.000000)" fill="#FFFFFF">
            <g id="Group-7" transform="translate(1194.000000, 54.000000)">
                <path d="M141,101 C145,85 154,69 139,64 C139,25.8220354 171,10 209,15 C210.341505,15.1765139 211.148623,18.7073252 212,18 C215.224327,15.3212239 215.451763,3.73418892 214,1 C213.3464,-0.230963485 211.824131,4.10395833 211,4 C155.507386,-3 143,6 118,60 C104.177723,58.025389 105,72 101,93 C108,99 122,104 141,101 Z" id="Oval"></path>
                <path d="M17,192 C0.747358381,177.664832 2.13162821e-13,92.2989899 2.13162821e-13,86.5 C2.13162821e-13,80.7010101 16.117749,76 36,76 C55.882251,76 72,80.7010101 72,86.5 C72,87.1542549 72,127 80,127 C92,127 96.7756545,103.562775 99,96 C107,103 130.997674,107.500814 141,104 C134,158 125.487258,175.020453 122,183 C119.512203,188.69258 113.68023,197.716025 101,201 C80.5785143,206.288836 49.1534997,203.712464 36,201 C25.6688004,198.86954 22.6688004,197 17,192 Z M36,89 C50.9116882,89 63,86.7614237 63,84 C63,81.2385763 50.9116882,79 36,79 C21.0883118,79 9,81.2385763 9,84 C9,86.7614237 21.0883118,89 36,89 Z" id="Combined-Shape"></path>
            </g>
        </g>
    </g>
</svg>