<?xml version="1.0" encoding="UTF-8"?>
<svg width="1351px" height="256px" viewBox="0 0 1351 256" version="1.1" xmlns="http://www.w3.org/2000/svg" xmlns:xlink="http://www.w3.org/1999/xlink">
    <!-- Generator: Sketch 52.6 (67491) - http://www.bohemiancoding.com/sketch -->
    <title>logo-black</title>
    <desc>Created with Sketch.</desc>
    <g id="Page-1" stroke="none" stroke-width="1" fill="none" fill-rule="evenodd">
        <g id="Artboard" transform="translate(-53.000000, -24.000000)">
            <g id="logo-black" transform="translate(53.000000, 24.000000)">
                <g id="Group-3">
                    <circle id="Oval" fill="#FFFFFF" cx="128.5" cy="128.5" r="116.5"></circle>
                    <path d="M146.121091,127.065744 C133.819372,129.011612 124.754947,125.768499 120.222735,121.876762 C122.812571,108.255684 122.28018,99.1914332 131.229536,100.472211 C147.416008,65.4465817 155.514026,59.6089768 191.443213,64.1493361 C191.976804,64.2167659 192.96241,61.4050369 193.385589,62.2034678 C194.325546,63.976925 194.178291,71.4925397 192.090672,73.2300548 C191.53944,73.6888421 191.016865,71.3986774 190.148295,71.2841865 C165.544857,68.0410727 144.826173,78.303605 144.826173,103.066702 C154.538056,106.309816 148.710926,116.68778 146.121091,127.065744 Z M65.3273506,186.16028 C54.7876843,176.924813 54.3030303,121.927661 54.3030303,118.191648 C54.3030303,114.455634 64.7552202,111.426997 77.6486498,111.426997 C90.5420794,111.426997 100.994269,114.455634 100.994269,118.191648 C100.994269,118.613153 100.994269,144.283871 106.182185,144.283871 C113.964058,144.283871 117.061019,129.184382 118.503484,124.312046 C123.691399,128.821813 139.253637,131.721474 145.74004,129.466065 C141.200614,164.255697 135.680191,175.221165 133.418741,180.362008 C131.80543,184.029467 128.023458,189.842843 119.800463,191.958552 C106.557345,195.365897 86.1785553,193.706063 77.6486498,191.958552 C70.948976,190.585997 69.0035078,189.381542 65.3273506,186.16028 Z M77.6486498,119.802279 C87.318722,119.802279 95.1578644,118.360071 95.1578644,116.581017 C95.1578644,114.801963 87.318722,113.359755 77.6486498,113.359755 C67.9785776,113.359755 60.1394352,114.801963 60.1394352,116.581017 C60.1394352,118.360071 67.9785776,119.802279 77.6486498,119.802279 Z M128,256 C198.692448,256 256,198.692448 256,128 C256,57.307552 198.692448,0 128,0 C57.307552,0 0,57.307552 0,128 C0,198.692448 57.307552,256 128,256 Z M128,234.077348 C186.584902,234.077348 234.077348,186.584902 234.077348,128 C234.077348,69.4150984 186.584902,21.9226519 128,21.9226519 C69.4150984,21.9226519 21.9226519,69.4150984 21.9226519,128 C21.9226519,186.584902 69.4150984,234.077348 128,234.077348 Z" id="Combined-Shape" fill="#000000"></path>
                </g>
                <path d="M364.602,193.82 C354.773951,193.82 345.279712,192.424681 336.119,189.634 C326.958288,186.843319 319.708693,183.14269 314.37,178.532 L322.56,160.15 C327.777359,164.275354 334.177629,167.64232 341.761,170.251 C349.344371,172.85968 356.957962,174.164 364.602,174.164 C374.066047,174.164 381.133643,172.647349 385.805,169.614 C390.476357,166.580652 392.812,162.576692 392.812,157.602 C392.812,153.961982 391.50768,150.959012 388.899,148.593 C386.29032,146.226988 382.98402,144.376673 378.98,143.042 C374.97598,141.707327 369.516035,140.190675 362.6,138.492 C352.893285,136.186655 345.03703,133.881345 339.031,131.576 C333.02497,129.270655 327.868355,125.661025 323.561,120.747 C319.253645,115.832975 317.1,109.190042 317.1,100.818 C317.1,93.7806315 319.010981,87.3803622 322.833,81.617 C326.655019,75.8536379 332.418295,71.2733503 340.123,67.876 C347.827705,64.4786497 357.261278,62.78 368.424,62.78 C376.189372,62.78 383.833296,63.750657 391.356,65.692 C398.878704,67.633343 405.369973,70.4239818 410.83,74.064 L403.368,92.446 C397.786639,89.1699836 391.962697,86.6826752 385.896,84.984 C379.829303,83.2853248 373.944695,82.436 368.242,82.436 C358.899287,82.436 351.953023,84.0133176 347.403,87.168 C342.852977,90.3226824 340.578,94.5086406 340.578,99.726 C340.578,103.366018 341.88232,106.338655 344.491,108.644 C347.09968,110.949345 350.40598,112.769327 354.41,114.104 C358.41402,115.438673 363.873965,116.955325 370.79,118.654 C380.254047,120.838011 388.019303,123.112988 394.086,125.479 C400.152697,127.845012 405.339645,131.454642 409.647,136.308 C413.954355,141.161358 416.108,147.713292 416.108,155.964 C416.108,163.001369 414.197019,169.371305 410.375,175.074 C406.552981,180.776695 400.759372,185.32665 392.994,188.724 C385.228628,192.12135 375.764722,193.82 364.602,193.82 Z M529.13,117.198 L529.13,64.6 L552.79,64.6 L552.79,192 L529.13,192 L529.13,137.4 L463.246,137.4 L463.246,192 L439.586,192 L439.586,64.6 L463.246,64.6 L463.246,117.198 L529.13,117.198 Z M610.666,137.036 L610.666,172.162 L682.556,172.162 L682.556,192 L587.006,192 L587.006,64.6 L680.008,64.6 L680.008,84.438 L610.666,84.438 L610.666,117.562 L672.182,117.562 L672.182,137.036 L610.666,137.036 Z M817.782,192 L792.302,192 L766.276,154.69 C765.183995,154.811334 763.546011,154.872 761.362,154.872 L732.606,154.872 L732.606,192 L708.946,192 L708.946,64.6 L761.362,64.6 C772.403389,64.6 782.018959,66.4199818 790.209,70.06 C798.399041,73.7000182 804.677978,78.9172994 809.046,85.712 C813.414022,92.5067006 815.598,100.575287 815.598,109.918 C815.598,119.503381 813.262357,127.753965 808.591,134.67 C803.919643,141.586035 797.216044,146.74265 788.48,150.14 L817.782,192 Z M791.756,109.918 C791.756,101.788626 789.086693,95.5400218 783.748,91.172 C778.409307,86.8039782 770.583385,84.62 760.27,84.62 L732.606,84.62 L732.606,135.398 L760.27,135.398 C770.583385,135.398 778.409307,133.183689 783.748,128.755 C789.086693,124.326311 791.756,118.047374 791.756,109.918 Z M932.26,192 L841.988,192 L841.988,64.6 L865.648,64.6 L865.648,171.98 L932.26,171.98 L932.26,192 Z M1008.154,193.82 C995.171268,193.82 983.462719,190.999028 973.028,185.357 C962.593281,179.714972 954.403363,171.88905 948.458,161.879 C942.512637,151.86895 939.54,140.676062 939.54,128.3 C939.54,115.923938 942.512637,104.73105 948.458,94.721 C954.403363,84.71095 962.593281,76.8850282 973.028,71.243 C983.462719,65.6009718 995.171268,62.78 1008.154,62.78 C1021.13673,62.78 1032.84528,65.6009718 1043.28,71.243 C1053.71472,76.8850282 1061.90464,84.6806169 1067.85,94.63 C1073.79536,104.579383 1076.768,115.802604 1076.768,128.3 C1076.768,140.797396 1073.79536,152.020617 1067.85,161.97 C1061.90464,171.919383 1053.71472,179.714972 1043.28,185.357 C1032.84528,190.999028 1021.13673,193.82 1008.154,193.82 Z M1008.154,173.072 C1016.64738,173.072 1024.2913,171.161019 1031.086,167.339 C1037.8807,163.516981 1043.21931,158.178368 1047.102,151.323 C1050.98469,144.467632 1052.926,136.793376 1052.926,128.3 C1052.926,119.806624 1050.98469,112.132368 1047.102,105.277 C1043.21931,98.4216324 1037.8807,93.0830191 1031.086,89.261 C1024.2913,85.4389809 1016.64738,83.528 1008.154,83.528 C999.660624,83.528 992.016701,85.4389809 985.222,89.261 C978.427299,93.0830191 973.088686,98.4216324 969.206,105.277 C965.323314,112.132368 963.382,119.806624 963.382,128.3 C963.382,136.793376 965.323314,144.467632 969.206,151.323 C973.088686,158.178368 978.427299,163.516981 985.222,167.339 C992.016701,171.161019 999.660624,173.072 1008.154,173.072 Z M1160.852,193.82 C1147.9906,193.82 1136.37305,190.999028 1125.999,185.357 C1115.62495,179.714972 1107.4957,171.919383 1101.611,161.97 C1095.7263,152.020617 1092.784,140.797396 1092.784,128.3 C1092.784,115.802604 1095.75664,104.579383 1101.702,94.63 C1107.64736,84.6806169 1115.80695,76.8850282 1126.181,71.243 C1136.55505,65.6009718 1148.1726,62.78 1161.034,62.78 C1171.46872,62.78 1180.99329,64.5999818 1189.608,68.24 C1198.22271,71.8800182 1205.50264,77.1579654 1211.448,84.074 L1196.16,98.452 C1186.93862,88.5026169 1175.59407,83.528 1162.126,83.528 C1153.38996,83.528 1145.56403,85.4389809 1138.648,89.261 C1131.73197,93.0830191 1126.33269,98.3912994 1122.45,105.186 C1118.56731,111.980701 1116.626,119.68529 1116.626,128.3 C1116.626,136.91471 1118.56731,144.619299 1122.45,151.414 C1126.33269,158.208701 1131.73197,163.516981 1138.648,167.339 C1145.56403,171.161019 1153.38996,173.072 1162.126,173.072 C1175.59407,173.072 1186.93862,168.036717 1196.16,157.966 L1211.448,172.526 C1205.50264,179.442035 1198.19238,184.719982 1189.517,188.36 C1180.84162,192.000018 1171.28672,193.82 1160.852,193.82 Z M1350.678,192 L1323.014,192 L1278.06,138.674 L1257.858,159.422 L1257.858,192 L1234.198,192 L1234.198,64.6 L1257.858,64.6 L1257.858,129.938 L1320.83,64.6 L1347.402,64.6 L1293.894,121.566 L1350.678,192 Z" id="Combined-Shape" fill="#000000"></path>
            </g>
        </g>
    </g>
</svg>