<svg id="Layer_1" data-name="Layer 1" xmlns="http://www.w3.org/2000/svg" viewBox="0 0 284.96 284.96"><defs><style>.cls-1{fill:#8716e8;}</style></defs><rect class="cls-1" width="284.96" height="284.96"/><path d="M269.91,81l-33,.57-1.44,0v.06a30.28,30.28,0,0,0-17.84,7.25v0l-24,19c-.12.09-.26.15-.39.25L127.46,160,127,131.82a6.21,6.21,0,0,0-6.31-6.09l-68.82,1.2a6.19,6.19,0,0,0-6.09,6.31l.8,45.94.1,5.91.07,3.78h0v.82h0a25.14,25.14,0,0,0,.14,2.71c0,.24,0,.46.07.68s0,.45.06.69a23.38,23.38,0,0,0,.41,2.86,31.07,31.07,0,0,0,.7,3.15,24.83,24.83,0,0,0,2.76,6.56,38.34,38.34,0,0,0,2.76,4.27A29.77,29.77,0,0,0,61.15,218c6.47,5.07,16.5,8.25,27.74,8.05s21.35-3.79,27.63-9.18a21.1,21.1,0,0,0,2.1-1.71,103.38,103.38,0,0,0,8.48-8c2.43-2.52,4.57-4.9,6.14-6.78L194.31,135a7.75,7.75,0,0,0,.9-1.19l13-13.86L223.05,104l3.13-3.34a30.23,30.23,0,0,1,20.17-8.19l14.24-.25,9.52-.17a5.57,5.57,0,1,0-.2-11.13Z" transform="translate(-7.82 -7.23)"/></svg>