<?xml version="1.0" encoding="UTF-8"?>
<svg width="1351px" height="256px" viewBox="0 0 1351 256" version="1.1" xmlns="http://www.w3.org/2000/svg" xmlns:xlink="http://www.w3.org/1999/xlink">
    <!-- Generator: Sketch 52.6 (67491) - http://www.bohemiancoding.com/sketch -->
    <title>logo-white</title>
    <desc>Created with Sketch.</desc>
    <g id="Page-1" stroke="none" stroke-width="1" fill="none" fill-rule="evenodd">
        <g id="Artboard" transform="translate(-53.000000, -371.000000)">
            <g id="logo-white" transform="translate(53.000000, 371.000000)">
                <g id="Group-3">
                    <circle id="Oval" fill="#FFFFFF" cx="128.5" cy="128.5" r="116.5"></circle>
                    <path d="M146.121091,127.065744 C133.819372,129.011612 124.754947,125.768499 120.222735,121.876762 C122.812571,108.255684 122.28018,99.1914332 131.229536,100.472211 C147.416008,65.4465817 155.514026,59.6089768 191.443213,64.1493361 C191.976804,64.2167659 192.96241,61.4050369 193.385589,62.2034678 C194.325546,63.976925 194.178291,71.4925397 192.090672,73.2300548 C191.53944,73.6888421 191.016865,71.3986774 190.148295,71.2841865 C165.544857,68.0410727 144.826173,78.303605 144.826173,103.066702 C154.538056,106.309816 148.710926,116.68778 146.121091,127.065744 Z M65.3273506,186.16028 C54.7876843,176.924813 54.3030303,121.927661 54.3030303,118.191648 C54.3030303,114.455634 64.7552202,111.426997 77.6486498,111.426997 C90.5420794,111.426997 100.994269,114.455634 100.994269,118.191648 C100.994269,118.613153 100.994269,144.283871 106.182185,144.283871 C113.964058,144.283871 117.061019,129.184382 118.503484,124.312046 C123.691399,128.821813 139.253637,131.721474 145.74004,129.466065 C141.200614,164.255697 135.680191,175.221165 133.418741,180.362008 C131.80543,184.029467 128.023458,189.842843 119.800463,191.958552 C106.557345,195.365897 86.1785553,193.706063 77.6486498,191.958552 C70.948976,190.585997 69.0035078,189.381542 65.3273506,186.16028 Z M77.6486498,119.802279 C87.318722,119.802279 95.1578644,118.360071 95.1578644,116.581017 C95.1578644,114.801963 87.318722,113.359755 77.6486498,113.359755 C67.9785776,113.359755 60.1394352,114.801963 60.1394352,116.581017 C60.1394352,118.360071 67.9785776,119.802279 77.6486498,119.802279 Z M128,256 C198.692448,256 256,198.692448 256,128 C256,57.307552 198.692448,0 128,0 C57.307552,0 0,57.307552 0,128 C0,198.692448 57.307552,256 128,256 Z M128,234.077348 C186.584902,234.077348 234.077348,186.584902 234.077348,128 C234.077348,69.4150984 186.584902,21.9226519 128,21.9226519 C69.4150984,21.9226519 21.9226519,69.4150984 21.9226519,128 C21.9226519,186.584902 69.4150984,234.077348 128,234.077348 Z" id="Combined-Shape" fill="#000000"></path>
                </g>
                <text id="SHERLOCK" font-family="Montserrat-SemiBold, Montserrat" font-size="182" font-weight="500" fill="#FFFFFF">
                    <tspan x="308" y="192">SHERLOCK</tspan>
                </text>
            </g>
        </g>
    </g>
</svg>