<?xml version="1.0" encoding="UTF-8"?>
<svg width="370px" height="89px" viewBox="0 0 370 89" version="1.1" xmlns="http://www.w3.org/2000/svg" xmlns:xlink="http://www.w3.org/1999/xlink">
    <g id="Page-1" stroke="none" stroke-width="1" fill="none" fill-rule="evenodd">
        <g id="Desktop-HD" transform="translate(-59.000000, -37.000000)">
            <g id="Group-2" transform="translate(59.000000, 37.000000)">
                <g id="Group">
                    <g id="Group-4">
                        <text id="Sherlock" font-family="courier" font-size="56" font-weight="regular" fill="#FFF">
                            <tspan x="103.078125" y="62">Sherlock</tspan>
                        </text>
                        <g id="Group-3">
                            <circle id="Oval" fill="#FFFFFF" cx="44.5" cy="44.5" r="40.5"></circle>
                            <path d="M50.7999104,44.1752001 C46.5231409,44.8516934 43.3718371,43.7242046 41.7961852,42.3712181 C42.6965577,37.6357652 42.5114687,34.4845217 45.6227684,34.9297921 C51.2500966,22.7529132 54.0654232,20.7234333 66.5564294,22.3019176 C66.7419358,22.32536 67.0845879,21.3478449 67.2317088,21.6254244 C67.5584906,22.2419778 67.5072965,24.8548282 66.7815226,25.4588862 C66.5898835,25.6183865 66.4082068,24.8221965 66.1062432,24.782393 C57.5527043,23.6549042 50.3497241,27.2227377 50.3497241,35.8317831 C53.7261211,36.9592719 51.7002829,40.567236 50.7999104,44.1752001 Z M22.7114617,64.7197848 C19.0472809,61.5090169 18.8787879,42.3889135 18.8787879,41.0900651 C18.8787879,39.7912167 22.512557,38.738292 26.9950384,38.738292 C31.4775198,38.738292 35.1112889,39.7912167 35.1112889,41.0900651 C35.1112889,41.236604 35.1112889,50.1611897 36.9149002,50.1611897 C39.620317,50.1611897 40.696995,44.9117578 41.1984768,43.2178597 C43.0020881,44.7857084 48.4123972,45.7937935 50.6674358,45.0096868 C49.089276,57.1045196 47.1700664,60.9167332 46.3838591,62.7039793 C45.8229817,63.9789942 44.5081552,66.0000508 41.6493796,66.7355902 C37.045327,67.9201752 29.9605134,67.3431236 26.9950384,66.7355902 C24.665855,66.2584132 23.9895007,65.8396767 22.7114617,64.7197848 Z M26.9950384,41.650011 C30.3568995,41.650011 33.0822263,41.1486183 33.0822263,40.5301191 C33.0822263,39.9116199 30.3568995,39.4102272 26.9950384,39.4102272 C23.6331774,39.4102272 20.9078505,39.9116199 20.9078505,40.5301191 C20.9078505,41.1486183 23.6331774,41.650011 26.9950384,41.650011 Z M44.5,89 C69.0766714,89 89,69.0766714 89,44.5 C89,19.9233286 69.0766714,0 44.5,0 C19.9233286,0 0,19.9233286 0,44.5 C0,69.0766714 19.9233286,89 44.5,89 Z M44.5,81.378453 C64.8674072,81.378453 81.378453,64.8674072 81.378453,44.5 C81.378453,24.1325928 64.8674072,7.62154696 44.5,7.62154696 C24.1325928,7.62154696 7.62154696,24.1325928 7.62154696,44.5 C7.62154696,64.8674072 24.1325928,81.378453 44.5,81.378453 Z" id="Combined-Shape" fill="#000000"></path>
                        </g>
                    </g>
                </g>
            </g>
        </g>
    </g>
</svg>