<?xml version="1.0" encoding="UTF-8"?>
<svg width="98px" height="98px" viewBox="0 0 98 98" version="1.1" xmlns="http://www.w3.org/2000/svg" xmlns:xlink="http://www.w3.org/1999/xlink">
    <!-- Generator: Sketch 52.6 (67491) - http://www.bohemiancoding.com/sketch -->
    <title>Combined Shape</title>
    <desc>Created with Sketch.</desc>
    <g id="Page-1" stroke="none" stroke-width="1" fill="none" fill-rule="evenodd">
        <g id="o" transform="translate(-1.000000, -2.000000)" fill="#FE6E99">
            <path d="M1.82473636,60 L19.2830079,60 C23.1709892,73.2915861 35.4517338,83 50,83 C64.5482662,83 76.8290108,73.2915861 80.7169921,60 L98.1752636,60 C93.9493721,82.7633227 73.9876069,100 50,100 C26.0123931,100 6.05062789,82.7633227 1.82473636,60 Z M1.82473636,42 C6.05062789,19.2366773 26.0123931,2 50,2 C73.9876069,2 93.9493721,19.2366773 98.1752636,42 L80.7169921,42 C76.8290108,28.7084139 64.5482662,19 50,19 C35.4517338,19 23.1709892,28.7084139 19.2830079,42 L1.82473636,42 Z" id="Combined-Shape"></path>
        </g>
    </g>
</svg>