<?xml version="1.0" encoding="UTF-8"?>
<svg width="391px" height="392px" viewBox="0 0 391 392" version="1.1" xmlns="http://www.w3.org/2000/svg" xmlns:xlink="http://www.w3.org/1999/xlink">
    <!-- Generator: Sketch 52.6 (67491) - http://www.bohemiancoding.com/sketch -->
    <title>Group 2</title>
    <desc>Created with Sketch.</desc>
    <g id="Page-1" stroke="none" stroke-width="1" fill="none" fill-rule="evenodd">
        <g id="r" transform="translate(-765.000000, -724.000000)">
            <g id="Group-2" transform="translate(765.000000, 668.000000)">
                <circle id="Oval" fill="#FEF0AE" cx="195.458219" cy="252.022446" r="195.161028"></circle>
                <path d="M322.476313,356.729447 L322.484201,356.729447 C322.026701,384.95019 315.558598,411.713818 304.310408,435.799509 L304.294632,435.791633 C289.220796,429.695385 278.587865,414.950973 278.587865,397.709777 C278.587865,375.026066 297.006184,356.634932 319.723425,356.634932 C320.646313,356.634932 321.561313,356.674313 322.476313,356.729447 Z" id="Path" fill="#FEE97D" transform="translate(300.536033, 396.217221) rotate(40.000000) translate(-300.536033, -396.217221) "></path>
                <path d="M79.7424661,374.455087 C96.7567334,374.455087 111.057552,386.088365 115.080397,401.833066 C103.619233,403.928159 91.8110006,405.022963 79.7424661,405.022963 C67.6739316,405.022963 55.8656989,403.928159 44.4045351,401.833066 C48.4273799,386.088365 62.7281989,374.455087 79.7424661,374.455087 Z" id="Path" fill="#FEDF30" transform="translate(79.742466, 389.739025) rotate(40.000000) translate(-79.742466, -389.739025) "></path>
                <path d="M166.300502,336.125091 C179.449683,336.125091 190.114166,346.773833 190.114166,359.903606 C190.114166,373.041256 179.449683,383.682122 166.300502,383.682122 C153.143433,383.682122 142.478951,373.041256 142.478951,359.903606 C142.478951,346.773833 153.143433,336.125091 166.300502,336.125091 Z" id="Path" fill="#FEE97D" transform="translate(166.296558, 359.903606) rotate(40.000000) translate(-166.296558, -359.903606) "></path>
                <ellipse id="Oval" fill="#FEE97D" transform="translate(239.549421, 339.784254) rotate(40.000000) translate(-239.549421, -339.784254) " cx="239.549421" cy="339.784254" rx="16.8407328" ry="16.8158763"></ellipse>
                <ellipse id="Oval" fill="#FEE97D" transform="translate(209.095020, 200.646193) rotate(40.000000) translate(-209.095020, -200.646193) " cx="209.09502" cy="200.646193" rx="45.3161638" ry="45.2492784"></ellipse>
                <ellipse id="Oval" fill="#FEE45A" transform="translate(79.306628, 262.759492) rotate(40.000000) translate(-79.306628, -262.759492) " cx="79.3066285" cy="262.759492" rx="26.0853879" ry="26.0468866"></ellipse>
                <path d="M116.358273,133.150333 C125.153316,133.150333 132.284006,140.270498 132.284006,149.044684 C132.284006,157.826745 125.153316,164.94691 116.358273,164.94691 C107.56323,164.94691 100.440428,157.826745 100.440428,149.044684 C100.440428,140.270498 107.56323,133.150333 116.358273,133.150333 Z" id="Path" fill="#FEDF30" transform="translate(116.362217, 149.048622) rotate(40.000000) translate(-116.362217, -149.048622) "></path>
                <path d="M251.072995,25.5258833 C252.839892,32.039574 253.794331,38.8919451 253.794331,45.9648524 C253.794331,88.9930173 218.858685,123.8771 175.759029,123.8771 C162.822823,123.8771 150.620193,120.726584 139.876831,115.165925 L139.868943,115.165925 C150.005082,97.4068066 162.855995,81.3934893 177.857241,67.6884205 C198.636656,48.7044431 223.54196,34.1493522 251.072995,25.518007 L251.072995,25.5258833 Z" id="Path" fill="#FEDF30" transform="translate(196.831637, 74.697553) rotate(40.000000) translate(-196.831637, -74.697553) "></path>
            </g>
        </g>
    </g>
</svg>