<?xml version="1.0" encoding="UTF-8"?>
<svg width="480px" height="385px" viewBox="0 0 480 385" version="1.1" xmlns="http://www.w3.org/2000/svg" xmlns:xlink="http://www.w3.org/1999/xlink">
    <!-- Generator: Sketch 52.6 (67491) - http://www.bohemiancoding.com/sketch -->
    <title>github</title>
    <desc>Created with Sketch.</desc>
    <g id="Page-1" stroke="none" stroke-width="1" fill="none" fill-rule="evenodd">
        <g id="github" fill="#FFFFFF" fill-rule="nonzero">
            <path d="M186.1,264.7 C186.1,285.6 175.2,319.8 149.4,319.8 C123.6,319.8 112.7,285.6 112.7,264.7 C112.7,243.8 123.6,209.6 149.4,209.6 C175.2,209.6 186.1,243.8 186.1,264.7 Z M480,214.2 C480,246.1 476.8,279.9 462.5,309.2 C424.6,385.8 320.4,384 245.8,384 C170,384 59.6,386.7 20.2,309.2 C5.6,280.2 1.77635684e-14,246.1 1.77635684e-14,214.2 C1.77635684e-14,172.3 13.9,132.7 41.5,100.6 C36.3,84.8 33.8,68.2 33.8,51.8 C33.8,30.3 38.7,19.5 48.4,0 C93.7,0 122.7,9 157.2,36 C186.2,29.1 216,26 245.9,26 C272.9,26 300.1,28.9 326.3,35.2 C360.3,8.5 389.3,0 434.1,0 C443.9,19.5 448.7,30.3 448.7,51.8 C448.7,68.2 446.1,84.5 441,100 C468.5,132.4 480,172.3 480,214.2 Z M415.7,264.7 C415.7,220.8 389,182.1 342.2,182.1 C323.3,182.1 305.2,185.5 286.2,188.1 C271.3,190.4 256.4,191.3 241.1,191.3 C225.9,191.3 211,190.4 196,188.1 C177.3,185.5 159,182.1 140,182.1 C93.2,182.1 66.5,220.8 66.5,264.7 C66.5,352.5 146.9,366 216.9,366 L265.1,366 C335.4,366 415.7,352.6 415.7,264.7 Z M333.1,209.6 C307.3,209.6 296.4,243.8 296.4,264.7 C296.4,285.6 307.3,319.8 333.1,319.8 C358.9,319.8 369.8,285.6 369.8,264.7 C369.8,243.8 358.9,209.6 333.1,209.6 Z" id="Shape"></path>
        </g>
    </g>
</svg>