<?xml version="1.0" encoding="UTF-8"?>
<svg width="496px" height="496px" viewBox="0 0 496 496" version="1.1" xmlns="http://www.w3.org/2000/svg" xmlns:xlink="http://www.w3.org/1999/xlink">
    <!-- Generator: Sketch 52.6 (67491) - http://www.bohemiancoding.com/sketch -->
    <title>globe</title>
    <desc>Created with Sketch.</desc>
    <g id="Page-1" stroke="none" stroke-width="1" fill="none" fill-rule="evenodd">
        <g id="globe" fill="#FFFFFF" fill-rule="nonzero">
            <path d="M248,0 C111,0 0,111 0,248 C0,385 111,496 248,496 C385,496 496,385 496,248 C496,111 385,0 248,0 Z M427.3,160 L360.1,160 C353.4,123.5 342.6,91.2 328.9,65.3 C371.8,84.3 406.6,118 427.3,160 Z M248,48 C266.6,48 296.6,89.2 311.2,160 L184.8,160 C199.4,89.2 229.4,48 248,48 Z M48,248 C48,234.3 49.4,220.9 52,208 L129.7,208 C128.7,221.1 128,234.3 128,248 C128,261.7 128.7,274.9 129.7,288 L52,288 C49.4,275.1 48,261.7 48,248 Z M68.7,336 L135.9,336 C142.6,372.5 153.4,404.8 167.1,430.7 C124.2,411.7 89.4,378 68.7,336 Z M135.9,160 L68.7,160 C89.4,118 124.2,84.3 167.1,65.3 C153.4,91.2 142.6,123.5 135.9,160 Z M248,448 C229.4,448 199.4,406.8 184.8,336 L311.3,336 C296.6,406.8 266.6,448 248,448 Z M318.1,288 L177.9,288 C176.8,275.2 176,262 176,248 C176,234 176.8,220.8 177.9,208 L318.2,208 C319.3,220.8 320.1,234 320.1,248 C320.1,262 319.2,275.2 318.1,288 Z M328.9,430.7 C342.6,404.8 353.3,372.5 360.1,336 L427.3,336 C406.6,378 371.8,411.7 328.9,430.7 Z M366.3,288 C367.3,274.9 368,261.7 368,248 C368,234.3 367.3,221.1 366.3,208 L444,208 C446.6,220.9 448,234.3 448,248 C448,261.7 446.6,275.1 444,288 L366.3,288 Z" id="Shape"></path>
        </g>
    </g>
</svg>