<?xml version="1.0" encoding="UTF-8"?>
<svg width="1289px" height="727px" viewBox="0 0 1289 727" version="1.1" xmlns="http://www.w3.org/2000/svg" xmlns:xlink="http://www.w3.org/1999/xlink">
    <!-- Generator: Sketch 52.6 (67491) - http://www.bohemiancoding.com/sketch -->
    <title>Group</title>
    <desc>Created with Sketch.</desc>
    <g id="Page-1" stroke="none" stroke-width="1" fill="none" fill-rule="evenodd">
        <g id="Artboard" transform="translate(-856.000000, -123.000000)">
            <g id="Group" transform="translate(856.000000, 123.000000)">
                <path d="M448,132 L732,213" id="Line" stroke="#FFFFFF" stroke-width="6" stroke-linecap="square"></path>
                <path d="M480,304 L732,213" id="Line" stroke="#FFFFFF" stroke-width="6" stroke-linecap="square"></path>
                <path d="M480,304 L448,132" id="Line" stroke="#FFFFFF" stroke-width="6" stroke-linecap="square"></path>
                <path d="M337,232 L448,132" id="Line" stroke="#FFFFFF" stroke-width="4" stroke-linecap="square"></path>
                <path d="M337,232 L480,304" id="Line" stroke="#FFFFFF" stroke-width="4" stroke-linecap="square"></path>
                <path d="M337,232 L348,509" id="Line" stroke="#FFFFFF" stroke-width="4" stroke-linecap="square"></path>
                <path d="M337,232 L10,199" id="Line" stroke="#FFFFFF" stroke-width="2" stroke-linecap="square"></path>
                <path d="M448,132 L10,199" id="Line" stroke="#FFFFFF" stroke-width="2" stroke-linecap="square"></path>
                <path d="M426,10 L10,199" id="Line" stroke="#FFFFFF" stroke-width="2" stroke-linecap="square"></path>
                <path d="M426,10 L448,132" id="Line" stroke="#FFFFFF" stroke-width="2" stroke-linecap="square"></path>
                <path d="M426,10 L953,95" id="Line" stroke="#FFFFFF" stroke-width="2" stroke-linecap="square"></path>
                <path d="M94,348 L337,232" id="Line" stroke="#FFFFFF" stroke-width="2" stroke-linecap="square"></path>
                <path d="M94,348 L348,509" id="Line" stroke="#FFFFFF" stroke-width="2" stroke-linecap="square"></path>
                <path d="M358,647 L348,509" id="Line" stroke="#FFFFFF" stroke-width="2" stroke-linecap="square"></path>
                <path d="M358,647 L94,348" id="Line" stroke="#FFFFFF" stroke-width="2" stroke-linecap="square"></path>
                <path d="M10,199 L94,348" id="Line" stroke="#FFFFFF" stroke-width="2" stroke-linecap="square"></path>
                <path d="M358,647 L567,509" id="Line" stroke="#FFFFFF" stroke-width="2" stroke-linecap="square"></path>
                <path d="M722,717 L567,509" id="Line" stroke="#FFFFFF" stroke-width="2" stroke-linecap="square"></path>
                <path d="M722,717 L358,647" id="Line" stroke="#FFFFFF" stroke-width="2" stroke-linecap="square"></path>
                <path d="M722,717 L876,637" id="Line" stroke="#FFFFFF" stroke-width="2" stroke-linecap="square"></path>
                <path d="M722,717 L1021,707" id="Line" stroke="#FFFFFF" stroke-width="2" stroke-linecap="square"></path>
                <path d="M876,637 L1021,707" id="Line" stroke="#FFFFFF" stroke-width="2" stroke-linecap="square"></path>
                <path d="M1274,449 L1021,707" id="Line" stroke="#FFFFFF" stroke-width="2" stroke-linecap="square"></path>
                <path d="M480,304 L348,509" id="Line" stroke="#FFFFFF" stroke-width="4" stroke-linecap="square"></path>
                <path d="M480,304 L567,509" id="Line" stroke="#FFFFFF" stroke-width="4" stroke-linecap="square"></path>
                <path d="M348,509 L567,509" id="Line" stroke="#FFFFFF" stroke-width="4" stroke-linecap="square"></path>
                <path d="M732,442 L567,509" id="Line" stroke="#FFFFFF" stroke-width="4" stroke-linecap="square"></path>
                <path d="M732,442 L876,637" id="Line" stroke="#FFFFFF" stroke-width="4" stroke-linecap="square"></path>
                <path d="M876,637 L567,509" id="Line" stroke="#FFFFFF" stroke-width="4" stroke-linecap="square"></path>
                <path d="M876,637 L990,479" id="Line" stroke="#FFFFFF" stroke-width="4" stroke-linecap="square"></path>
                <path d="M876,637 L1274,449" id="Line" stroke="#FFFFFF" stroke-width="4" stroke-linecap="square"></path>
                <path d="M480,304 L732,442" id="Line" stroke="#FFFFFF" stroke-width="6" stroke-linecap="square"></path>
                <path d="M732,213 L732,442" id="Line" stroke="#FFFFFF" stroke-width="6" stroke-linecap="square"></path>
                <path d="M931,304 L732,442" id="Line" stroke="#FFFFFF" stroke-width="6" stroke-linecap="square"></path>
                <path d="M931,304 L990,479" id="Line" stroke="#FFFFFF" stroke-width="4" stroke-linecap="square"></path>
                <path d="M732,442 L990,479" id="Line" stroke="#FFFFFF" stroke-width="4" stroke-linecap="square"></path>
                <path d="M1274,449 L990,479" id="Line" stroke="#FFFFFF" stroke-width="4" stroke-linecap="square"></path>
                <path d="M1274,449 L931,304" id="Line" stroke="#FFFFFF" stroke-width="4" stroke-linecap="square"></path>
                <path d="M1274,449 L1209,218" id="Line" stroke="#FFFFFF" stroke-width="4" stroke-linecap="square"></path>
                <path d="M931,304 L1209,218" id="Line" stroke="#FFFFFF" stroke-width="4" stroke-linecap="square"></path>
                <path d="M931,304 L953,95" id="Line" stroke="#FFFFFF" stroke-width="4" stroke-linecap="square"></path>
                <path d="M1209,218 L953,95" id="Line" stroke="#FFFFFF" stroke-width="4" stroke-linecap="square"></path>
                <path d="M732,213 L953,95" id="Line" stroke="#FFFFFF" stroke-width="4" stroke-linecap="square"></path>
                <path d="M448,132 L953,95" id="Line" stroke="#FFFFFF" stroke-width="4" stroke-linecap="square"></path>
                <path d="M931,304 L732,213" id="Line" stroke="#FFFFFF" stroke-width="6" stroke-linecap="square"></path>
                <circle id="Oval" fill="#FFFFFF" cx="448" cy="132" r="22"></circle>
                <circle id="Oval" fill="#FFFFFF" cx="480" cy="304" r="22"></circle>
                <circle id="Oval" fill="#FFFFFF" cx="732" cy="213" r="22"></circle>
                <circle id="Oval" fill="#FFFFFF" cx="953" cy="95" r="15"></circle>
                <circle id="Oval" fill="#FFFFFF" cx="337" cy="232" r="15"></circle>
                <circle id="Oval" fill="#FFFFFF" cx="348" cy="509" r="15"></circle>
                <circle id="Oval" fill="#FFFFFF" cx="567" cy="509" r="15"></circle>
                <circle id="Oval" fill="#FFFFFF" cx="358" cy="647" r="10"></circle>
                <circle id="Oval" fill="#FFFFFF" cx="722" cy="717" r="10"></circle>
                <circle id="Oval" fill="#FFFFFF" cx="1021" cy="707" r="10"></circle>
                <circle id="Oval" fill="#FFFFFF" cx="94" cy="348" r="10"></circle>
                <circle id="Oval" fill="#FFFFFF" cx="10" cy="199" r="10"></circle>
                <circle id="Oval" fill="#FFFFFF" cx="426" cy="10" r="10"></circle>
                <circle id="Oval" fill="#FFFFFF" cx="876" cy="637" r="15"></circle>
                <circle id="Oval" fill="#FFFFFF" cx="1209" cy="218" r="15"></circle>
                <circle id="Oval" fill="#FFFFFF" cx="1274" cy="449" r="15"></circle>
                <circle id="Oval" fill="#FFFFFF" cx="990" cy="479" r="15"></circle>
                <circle id="Oval" fill="#FFFFFF" cx="931" cy="304" r="22"></circle>
                <circle id="Oval" fill="#FFFFFF" cx="732" cy="442" r="22"></circle>
            </g>
        </g>
    </g>
</svg>