<?xml version="1.0" encoding="UTF-8"?>
<svg width="248px" height="189px" viewBox="0 0 248 189" version="1.1" xmlns="http://www.w3.org/2000/svg" xmlns:xlink="http://www.w3.org/1999/xlink">
    <g id="Page-1" stroke="none" stroke-width="1" fill="none" fill-rule="evenodd">
        <g id="Group" fill="#000000">
            <path d="M241.159061,37 L204.284104,37 L204.284104,37.0741374 C197.229166,37.385074 190.469351,39.9884763 185.034095,44.4878779 L158.9124,64.3103664 C158.773109,64.4030382 158.624532,64.4586412 158.494527,64.5605802 L87.0475565,118.847695 L87.0475565,88.7201069 C87.0475565,85.0606513 84.0749353,82.0940763 80.4080213,82.0940763 L6.63953519,82.0940763 C2.97262116,82.0940763 0,85.0606513 0,88.7201069 L0,148.224641 L0,149.095756 C0,149.77226 0,150.810183 0.092860632,151.996382 C0.092860632,152.246595 0.139290948,152.487542 0.157863074,152.719221 C0.176435201,152.950901 0.157863074,153.201115 0.213579454,153.451328 C0.272613489,154.484619 0.40292705,155.512621 0.603594108,156.528031 C0.771329102,157.666384 0.997588511,158.79538 1.28147672,159.91055 C1.88629116,162.384693 2.84319186,164.759596 4.12301206,166.96287 C4.97412177,168.571933 5.93598763,170.120174 7.00169165,171.596458 C9.14005226,174.719564 11.8192102,177.437207 14.9134175,179.621832 C21.74796,185.182137 32.4269327,188.75 44.4802427,188.75 C56.5335528,188.75 67.4261049,185.089466 74.2513614,179.482824 C75.0563451,178.93678 75.8227091,178.336083 76.545019,177.684992 C79.7765756,175.060729 82.8552776,172.254381 85.7660797,169.279664 C88.4218938,166.629252 90.7619817,164.136382 92.4799034,162.153206 L159.144551,93.4092977 C159.512063,93.0213712 159.841663,92.5993484 160.128874,92.1489618 L174.271548,77.5716947 L190.522159,60.8259084 L193.930144,57.3136489 C199.898534,51.9364681 207.655927,48.9640049 215.696676,48.9731908 L241.159061,48.9731908 C244.45672,48.9731908 247.13,46.3053479 247.13,43.0143969 C247.13,39.723446 244.45672,37.0556031 241.159061,37.0556031 L241.159061,37 Z" id="Path"></path>
            <rect id="Rectangle" x="7" y="52" width="74" height="11" rx="5.5"></rect>
            <rect id="Rectangle" x="16" y="26" width="56" height="11" rx="5.5"></rect>
            <rect id="Rectangle" x="25" y="0" width="38" height="11" rx="5.5"></rect>
        </g>
    </g>
</svg>